<svg width="360" height="70" xmlns="http://www.w3.org/2000/svg">
 <!-- Created with Method Draw - http://github.com/duopixel/Method-Draw/ -->

 <g>
  <title>background</title>
  <rect fill="none" id="canvas_background" height="72" width="362" y="-1" x="-1"/>
  <g display="none" overflow="visible" y="0" x="0" height="100%" width="100%" id="canvasGrid">
   <rect fill="url(#gridpattern)" stroke-width="0" y="2.039249" x="1" height="600" width="800"/>
  </g>
 </g>
 <g>
  <title>Layer 1</title>
  <text font-weight="bold" stroke="#bf5b5b" transform="matrix(3.858390056432512,0,0,3.518506705760956,-591.7855783771379,-207.32212274614722) " xml:space="preserve" text-anchor="start" font-family="'Times New Roman', Times, serif" font-size="24" id="svg_15" y="77.199755" x="176.215632" stroke-opacity="null" stroke-width="0" fill="#000000">CHSH</text>
  <text font-weight="bold" stroke="#bf5b5b" transform="matrix(3.858390056432512,0,0,3.518506705760956,-591.7855783771379,-207.32212274614722) " xml:space="preserve" text-anchor="start" font-family="'Times New Roman', Times, serif" font-size="24" id="svg_23" y="76.34712" x="175.438106" stroke-opacity="null" stroke-width="0" fill="#ff0000">CHSH</text>
  <path stroke="#bf5b5b" id="svg_24" d="m69.357818,39.738368l8.208972,-4.265995c-0.161373,-1.580598 -0.47325,-3.113876 -0.863408,-4.621163l-9.118994,-1.240741c-0.78928,-1.86819 -1.831553,-3.600884 -3.056723,-5.191416l3.476038,-8.399962c-1.142985,-1.095266 -2.377363,-2.093831 -3.676565,-3.01266l-7.74321,4.776338c-1.815791,-0.938237 -3.772131,-1.65084 -5.825822,-2.108509l-2.798275,-8.517933c-0.793618,-0.058884 -1.587006,-0.121095 -2.396344,-0.121095s-1.600483,0.060775 -2.396487,0.121095l-2.770553,8.442482c-2.108741,0.443003 -4.108278,1.163883 -5.970742,2.1137l-7.622622,-4.706079c-1.297558,0.918829 -2.531885,1.917396 -3.674779,3.01266l3.380379,8.167939c-1.317507,1.659125 -2.420559,3.489732 -3.24905,5.46269l-8.831116,1.200056c-0.388511,1.50517 -0.70202,3.036822 -0.861732,4.620975l7.926144,4.120484c0.089799,2.16904 0.455793,4.271194 1.103887,6.25077l-5.979056,6.495759c0.695523,1.417444 1.469874,2.792063 2.365673,4.081718l8.802812,-1.856839c1.443287,1.542989 3.087669,2.894899 4.901912,4.012881l-0.33366,8.849564c1.445715,0.640669 2.947836,1.176856 4.495818,1.605442l5.569035,-7.033637c0.988119,0.123949 1.988721,0.207433 3.0093,0.207433c1.105608,0 2.186833,-0.09814 3.250647,-0.241751l5.598035,7.072656c1.550413,-0.42809 3.050246,-0.964249 4.495813,-1.604954l-0.340098,-9.00849c1.729212,-1.099977 3.297215,-2.415944 4.679586,-3.901712l9.031744,1.904169c0.895804,-1.289457 1.670261,-2.662613 2.365533,-4.081242l-6.172712,-6.708439c0.59296,-1.87505 0.924189,-3.854428 1.020621,-5.896193l-0.000002,0zm-13.643921,10.247292l-3.892016,2.489523l-2.39385,-3.613855c-1.245316,0.470652 -2.586041,0.756836 -3.999383,0.756836c-6.172685,0 -11.175071,-4.917104 -11.175071,-10.981231c0,-6.064373 5.002386,-10.979574 11.175071,-10.979574c6.171073,0 11.175287,4.915202 11.175287,10.979574c0,3.030424 -1.249405,5.769895 -3.268979,7.757531l2.378941,3.591197z" stroke-opacity="null" stroke-width="0" fill="#000000"/>
  <path stroke="#bf5b5b" id="svg_25" d="m65.357818,36.738368l8.208972,-4.265995c-0.161373,-1.580598 -0.47325,-3.113876 -0.863408,-4.621163l-9.118994,-1.240741c-0.78928,-1.86819 -1.831553,-3.600884 -3.056724,-5.191416l3.476039,-8.399962c-1.142985,-1.095266 -2.377363,-2.093831 -3.676566,-3.01266l-7.743209,4.776338c-1.815791,-0.938237 -3.772131,-1.650841 -5.825822,-2.108509l-2.798275,-8.517933c-0.793617,-0.058884 -1.587006,-0.121095 -2.396344,-0.121095s-1.600483,0.060774 -2.396487,0.121095l-2.770553,8.442482c-2.108741,0.443003 -4.108277,1.163883 -5.970742,2.113701l-7.622622,-4.706079c-1.297558,0.918829 -2.531885,1.917396 -3.674779,3.01266l3.380379,8.167939c-1.317508,1.659125 -2.420559,3.489732 -3.24905,5.46269l-8.831116,1.200055c-0.388512,1.50517 -0.702021,3.036823 -0.861732,4.620975l7.926143,4.120484c0.089799,2.16904 0.455793,4.271194 1.103888,6.25077l-5.979056,6.495759c0.695523,1.417444 1.469874,2.792063 2.365673,4.081718l8.802812,-1.856839c1.443287,1.542989 3.08767,2.894899 4.901913,4.012881l-0.33366,8.849564c1.445715,0.640668 2.947836,1.176856 4.495818,1.605442l5.569035,-7.033637c0.988119,0.123949 1.988722,0.207432 3.0093,0.207432c1.105608,0 2.186833,-0.09814 3.250648,-0.241751l5.598034,7.072657c1.550414,-0.428091 3.050246,-0.96425 4.495814,-1.604954l-0.340098,-9.008491c1.729212,-1.099976 3.297215,-2.415943 4.679586,-3.901712l9.031744,1.904169c0.895804,-1.289457 1.670261,-2.662613 2.365533,-4.081242l-6.172712,-6.708438c0.59296,-1.87505 0.924189,-3.854428 1.020621,-5.896194l-0.000003,0zm-13.643921,10.247292l-3.892016,2.489523l-2.393849,-3.613855c-1.245317,0.470652 -2.586042,0.756836 -3.999383,0.756836c-6.172685,0 -11.175071,-4.917105 -11.175071,-10.981231c0,-6.064373 5.002386,-10.979574 11.175071,-10.979574c6.171073,0 11.175287,4.915201 11.175287,10.979574c0,3.030424 -1.249405,5.769895 -3.268979,7.757531l2.37894,3.591196z" fill-opacity="null" stroke-opacity="null" stroke-width="0" fill="#0800ff"/>
 </g>
</svg>